<svg xmlns="http://www.w3.org/2000/svg" xmlns:xlink="http://www.w3.org/1999/xlink" width="120" zoomAndPan="magnify" viewBox="0 0 90 112.499997" height="150" preserveAspectRatio="xMidYMid meet" version="1.0"><defs><clipPath id="1dbdacbd6c"><path d="M 0.199219 0 L 89.800781 0 L 89.800781 112.003906 L 0.199219 112.003906 Z M 0.199219 0 " clip-rule="nonzero"/></clipPath><clipPath id="81b3c58411"><path d="M 1.8125 7.132812 L 88.429688 7.132812 L 88.429688 104.949219 L 1.8125 104.949219 Z M 1.8125 7.132812 " clip-rule="nonzero"/></clipPath></defs><g clip-path="url(#1dbdacbd6c)"><path fill="#ffffff" d="M 0.199219 0 L 89.800781 0 L 89.800781 119.46875 L 0.199219 119.46875 Z M 0.199219 0 " fill-opacity="1" fill-rule="nonzero"/><path fill="#ffffff" d="M 0.199219 0 L 89.800781 0 L 89.800781 112.003906 L 0.199219 112.003906 Z M 0.199219 0 " fill-opacity="1" fill-rule="nonzero"/><path fill="#ffffff" d="M 0.199219 0 L 89.800781 0 L 89.800781 112.003906 L 0.199219 112.003906 Z M 0.199219 0 " fill-opacity="1" fill-rule="nonzero"/></g><path fill="#1b1f14" d="M 13.5 81.308594 L 76.742188 81.308594 L 76.742188 99.339844 L 13.5 99.339844 Z M 13.5 81.308594 " fill-opacity="1" fill-rule="nonzero"/><path fill="#1b1f14" d="M 76.742188 30.34375 L 76.742188 40.554688 L 13.5 40.554688 L 13.5 10.566406 L 60.066406 10.566406 C 60.304688 10.566406 60.5 10.761719 60.5 10.996094 L 60.5 26.011719 C 60.5 28.167969 62.246094 29.933594 64.425781 29.933594 L 76.308594 29.933594 C 76.546875 29.914062 76.742188 30.109375 76.742188 30.34375 Z M 76.742188 30.34375 " fill-opacity="1" fill-rule="nonzero"/><g clip-path="url(#81b3c58411)"><path fill="#396a6a" d="M 82.535156 40.535156 L 80.472656 40.535156 L 80.472656 30.285156 C 80.472656 30.050781 80.394531 29.816406 80.238281 29.636719 L 76.742188 25.660156 L 63.484375 10.546875 L 60.792969 7.46875 C 60.597656 7.253906 60.34375 7.136719 60.046875 7.136719 L 13.695312 7.136719 C 11.515625 7.136719 9.769531 8.878906 9.769531 11.054688 L 9.769531 40.535156 L 7.707031 40.535156 C 4.445312 40.535156 1.8125 43.164062 1.8125 46.417969 L 1.8125 75.425781 C 1.8125 78.679688 4.445312 81.308594 7.707031 81.308594 L 9.769531 81.308594 L 9.769531 101.027344 C 9.769531 103.183594 11.515625 104.945312 13.695312 104.945312 L 76.546875 104.945312 C 78.707031 104.945312 80.472656 103.183594 80.472656 101.027344 L 80.472656 81.308594 L 82.535156 81.308594 C 85.796875 81.308594 88.429688 78.679688 88.429688 75.425781 L 88.429688 46.417969 C 88.429688 43.164062 85.796875 40.535156 82.535156 40.535156 Z M 13.5 10.546875 L 60.5 10.546875 L 60.5 25.992188 C 60.5 28.148438 62.246094 29.914062 64.425781 29.914062 L 76.742188 29.914062 L 76.742188 40.535156 L 13.5 40.535156 Z M 76.742188 99.339844 L 13.5 99.339844 L 13.5 81.308594 L 76.742188 81.308594 Z M 76.742188 99.339844 " fill-opacity="1" fill-rule="nonzero"/></g><path fill="#1b1f14" d="M 28.230469 57.589844 C 28.230469 62.390625 25.007812 64.902344 21.472656 65.3125 C 20.15625 65.449219 19.175781 65.488281 17.664062 65.488281 L 14.835938 65.488281 L 14.835938 74.035156 L 8.472656 74.035156 L 8.472656 49.691406 L 17.664062 49.691406 C 19.175781 49.691406 20.175781 49.730469 21.472656 49.867188 C 25.027344 50.277344 28.230469 52.789062 28.230469 57.589844 Z M 21.589844 57.589844 C 21.589844 55.746094 20.628906 54.804688 19.019531 54.667969 C 18.566406 54.628906 17.996094 54.628906 17.328125 54.628906 L 14.835938 54.628906 L 14.835938 60.550781 L 17.308594 60.550781 C 17.976562 60.550781 18.546875 60.550781 19 60.511719 C 20.628906 60.375 21.589844 59.433594 21.589844 57.589844 Z M 21.589844 57.589844 " fill-opacity="1" fill-rule="nonzero"/><path fill="#1b1f14" d="M 56.550781 61.550781 C 56.550781 69.175781 51.878906 73.269531 46.222656 73.898438 C 44.984375 74.035156 44.414062 74.035156 43.117188 74.035156 L 33.886719 74.035156 L 33.886719 49.691406 L 43.117188 49.691406 C 44.433594 49.691406 44.984375 49.691406 46.222656 49.828125 C 51.898438 50.453125 56.550781 53.925781 56.550781 61.550781 Z M 49.914062 61.648438 C 49.914062 57.316406 47.714844 54.984375 44.53125 54.6875 C 43.726562 54.609375 43.15625 54.609375 42.234375 54.609375 L 40.25 54.609375 L 40.25 69.078125 L 42.234375 69.078125 C 43.15625 69.078125 43.726562 69.078125 44.53125 68.996094 C 47.714844 68.742188 49.914062 65.980469 49.914062 61.648438 Z M 49.914062 61.648438 " fill-opacity="1" fill-rule="nonzero"/><path fill="#1b1f14" d="M 69.398438 59.355469 L 80.316406 59.355469 L 80.316406 64.292969 L 69.398438 64.292969 L 69.398438 74.035156 L 63.03125 74.035156 L 63.03125 49.691406 L 81.378906 49.691406 L 81.378906 54.628906 L 69.398438 54.628906 Z M 69.398438 59.355469 " fill-opacity="1" fill-rule="nonzero"/></svg>